<?xml version="1.0" encoding="UTF-8"?>
<svg xmlns="http://www.w3.org/2000/svg" xmlns:xlink="http://www.w3.org/1999/xlink" width="17px" height="15px" viewBox="0 0 17 15" version="1.1">
<g id="surface1">
<path style=" stroke:none;fill-rule:nonzero;fill:#243f4d;;fill-opacity:1;" d="M 7.496094 13.71875 L 7.414062 13.648438 L 1.597656 8.882812 C 0.578125 8.046875 0 6.875 0 5.648438 L 0 5.550781 C 0 3.488281 1.660156 1.71875 3.957031 1.332031 C 5.265625 1.109375 6.605469 1.375 7.671875 2.039062 C 7.96875 2.226562 8.246094 2.441406 8.5 2.691406 C 8.640625 2.550781 8.789062 2.421875 8.949219 2.304688 C 9.070312 2.207031 9.195312 2.121094 9.328125 2.039062 C 10.394531 1.375 11.734375 1.109375 13.042969 1.328125 C 15.339844 1.71875 17 3.488281 17 5.550781 L 17 5.648438 C 17 6.875 16.421875 8.046875 15.402344 8.882812 L 9.585938 13.648438 L 9.503906 13.71875 C 9.230469 13.9375 8.871094 14.066406 8.5 14.066406 C 8.128906 14.066406 7.769531 13.941406 7.496094 13.71875 Z M 7.9375 4.25 C 7.925781 4.238281 7.914062 4.226562 7.90625 4.214844 L 7.316406 3.628906 C 7.316406 3.628906 7.3125 3.628906 7.3125 3.628906 C 6.542969 2.867188 5.386719 2.523438 4.257812 2.714844 C 2.710938 2.972656 1.59375 4.164062 1.59375 5.550781 L 1.59375 5.648438 C 1.59375 6.484375 1.988281 7.285156 2.683594 7.851562 L 8.5 12.617188 L 14.316406 7.851562 C 15.011719 7.28125 15.40625 6.484375 15.40625 5.648438 L 15.40625 5.550781 C 15.40625 4.164062 14.289062 2.972656 12.746094 2.710938 C 11.617188 2.523438 10.457031 2.871094 9.691406 3.625 C 9.691406 3.625 9.691406 3.625 9.6875 3.628906 C 9.683594 3.632812 9.6875 3.628906 9.683594 3.632812 L 9.09375 4.21875 C 9.085938 4.230469 9.070312 4.238281 9.0625 4.25 C 8.910156 4.382812 8.710938 4.457031 8.5 4.457031 C 8.289062 4.457031 8.089844 4.382812 7.9375 4.25 Z M 7.9375 4.25 "/>
</g>
</svg>
